<?xml version="1.0" encoding="UTF-8"?>
<!DOCTYPE svg PUBLIC "-//W3C//DTD SVG 1.1//EN" "http://www.w3.org/Graphics/SVG/1.1/DTD/svg11.dtd">
<!-- Creator: CorelDRAW X8 -->
<svg xmlns="http://www.w3.org/2000/svg" xml:space="preserve" width="3508px" height="1535px" version="1.1" style="shape-rendering:geometricPrecision; text-rendering:geometricPrecision; image-rendering:optimizeQuality; fill-rule:evenodd; clip-rule:evenodd"
viewBox="0 0 3508 1535"
 xmlns:xlink="http://www.w3.org/1999/xlink">
 <defs>
  <style type="text/css">
   <![CDATA[
    .fil1 {fill:#EF7F1A}
    .fil2 {fill:#1B3354}
    .fil0 {fill:#1B3354;fill-rule:nonzero}
   ]]>
  </style>
 </defs>
 <g id="Warstwa_x0020_1">
  <metadata id="CorelCorpID_0Corel-Layer"/>
  <g id="_2090668527840">
   <path class="fil0" d="M593 946l32 0c6,0 12,0 18,1 6,1 12,2 19,3 23,6 38,20 44,44 3,14 5,29 5,45 0,45 -10,74 -31,87 -8,5 -18,8 -30,10 -4,0 -8,1 -12,1 -4,0 -8,0 -12,0l-139 0 0 61 -77 0 0 -252 183 0zm-106 65l0 61 97 0 24 0c10,0 17,-3 21,-9 3,-6 5,-14 5,-23 0,-10 -2,-17 -6,-21 -4,-5 -9,-8 -16,-8l-33 0 -92 0zm571 -65c8,0 14,0 17,0 4,0 8,1 14,1 24,3 40,11 49,26 3,6 5,11 7,18 1,6 2,12 3,18 0,6 1,13 1,19 0,21 -3,37 -9,47 -5,10 -19,19 -40,25 21,6 35,13 40,22 5,8 7,23 7,45l0 31 -77 0 0 -23c0,-16 -2,-27 -6,-32 -4,-5 -14,-8 -30,-8l-122 0 0 63 -77 0 0 -252 223 0zm-146 65l0 59 108 0c2,0 6,0 11,0 6,0 10,0 13,0 3,0 6,0 9,0 2,-1 5,-2 7,-3 8,-3 12,-12 12,-27 0,-10 -3,-18 -8,-23 -4,-4 -12,-5 -24,-5l-22 -1 -106 0zm488 -65l98 0 139 252 -87 0 -24 -43 -155 0 -23 43 -87 0 139 -252zm1 150l94 0 -46 -86 -48 86zm353 -150l122 0 89 162 90 -162 122 0 0 252 -77 0 0 -184 -105 184 -61 0 -103 -185 0 185 -77 0 0 -252zm677 0l97 0 140 252 -87 0 -24 -43 -156 0 -23 43 -87 0 140 -252zm1 150l94 0 -46 -86 -48 86zm576 -150c8,0 14,0 17,0 3,0 8,1 14,1 23,3 40,11 48,26 3,6 6,11 7,18 1,6 2,12 3,18 1,6 1,13 1,19 0,21 -3,37 -8,47 -6,10 -19,19 -40,25 21,6 34,13 39,22 5,8 8,23 8,45l0 31 -77 0 -1 -23c0,-16 -1,-27 -5,-32 -5,-5 -14,-8 -30,-8l-122 0 0 63 -77 0 0 -252 223 0zm-146 65l0 59 107 0c3,0 7,0 12,0 5,0 10,0 13,0 3,0 6,0 8,0 3,-1 5,-2 8,-3 7,-3 11,-12 11,-27 0,-10 -3,-18 -8,-23 -4,-4 -12,-5 -23,-5l-23 -1 -105 0z"/>
   <path class="fil1" d="M1754 812l86 -88 -86 -84 -85 85 85 87zm-31 -202l-102 -99c-16,-16 -47,-16 -66,-34 -12,-12 -22,-41 2,-65 23,-23 50,-12 62,1 20,19 19,46 37,64l100 100 53 -51c41,-41 19,-77 55,-113 20,-20 76,-15 79,-8 2,5 -39,26 -42,29 -3,4 -6,31 4,41 10,10 20,12 25,13 5,1 41,-33 44,-24 3,8 -8,32 -32,56 -25,23 -75,9 -102,34l-54 54 85 84 115 -117 233 -238 -465 0 -465 0 233 238 115 118 86 -83zm-159 -142l-1 -10 -8 -5 4 -9 -4 -9 8 -5 1 -10 9 -1 6 -8 9 4 8 -4 6 8 9 1 1 10 8 5 -4 9 4 9 -8 5 -1 10 -9 1 -6 8 -8 -4 -9 4 -6 -8 -9 -1z"/>
   <g>
    <g>
     <polygon class="fil2" points="837,478 1283,478 1305,500 837,500 "/>
     <polygon class="fil2" points="837,563 1367,563 1378,575 1389,586 837,586 "/>
     <polygon class="fil2" points="837,649 1451,649 1473,672 837,672 "/>
    </g>
    <g>
     <polygon class="fil2" points="2671,478 2225,478 2203,500 2671,500 "/>
     <polygon class="fil2" points="2671,563 2141,563 2130,575 2119,586 2671,586 "/>
     <polygon class="fil2" points="2671,649 2057,649 2035,672 2671,672 "/>
    </g>
   </g>
  </g>
 </g>
</svg>
